<svg width="132" height="29" viewBox="0 0 132 29" fill="none" xmlns="http://www.w3.org/2000/svg">
<path d="M5.34943 12.5398V22H0.81108V0.181818H5.22159V8.52344H5.41335C5.78267 7.55753 6.37926 6.80114 7.20312 6.25426C8.02699 5.70028 9.06037 5.4233 10.3033 5.4233C11.4396 5.4233 12.4304 5.67187 13.2756 6.16903C14.1278 6.65909 14.7884 7.36577 15.2571 8.28906C15.733 9.20526 15.9673 10.3026 15.9602 11.581V22H11.4219V12.3906C11.429 11.3821 11.1733 10.5973 10.6548 10.0362C10.1435 9.47514 9.42614 9.1946 8.50284 9.1946C7.88494 9.1946 7.33807 9.32599 6.86222 9.58878C6.39347 9.85156 6.02415 10.2351 5.75426 10.7393C5.49148 11.2365 5.35653 11.8366 5.34943 12.5398ZM20.2477 28.1364C19.6724 28.1364 19.1326 28.0902 18.6284 27.9979C18.1312 27.9126 17.7193 27.8026 17.3926 27.6676L18.4153 24.2798C18.948 24.4432 19.4274 24.532 19.8535 24.5462C20.2868 24.5604 20.6596 24.4609 20.9721 24.2479C21.2917 24.0348 21.551 23.6726 21.7498 23.1612L22.0162 22.4688L16.1461 5.63636H20.9189L24.3066 17.6534H24.4771L27.8968 5.63636H32.7015L26.3414 23.7685C26.036 24.6491 25.6206 25.4162 25.095 26.0696C24.5765 26.7301 23.9196 27.2379 23.1241 27.593C22.3287 27.9553 21.3699 28.1364 20.2477 28.1364ZM40.454 22.3196C38.7708 22.3196 37.3219 21.9787 36.1074 21.2969C34.9 20.608 33.9696 19.6349 33.3162 18.3778C32.6628 17.1136 32.3361 15.6186 32.3361 13.8928C32.3361 12.2095 32.6628 10.7322 33.3162 9.46094C33.9696 8.18963 34.8894 7.19886 36.0755 6.48864C37.2686 5.77841 38.6678 5.4233 40.2729 5.4233C41.3525 5.4233 42.3574 5.5973 43.2878 5.94531C44.2253 6.28622 45.0421 6.80114 45.7381 7.49006C46.4412 8.17898 46.9881 9.04545 47.3787 10.0895C47.7694 11.1264 47.9647 12.3409 47.9647 13.733V14.9794H34.1472V12.1669H43.6926C43.6926 11.5135 43.5506 10.9347 43.2665 10.4304C42.9824 9.92614 42.5882 9.53196 42.084 9.24787C41.5868 8.95668 41.008 8.81108 40.3475 8.81108C39.6586 8.81108 39.0478 8.97088 38.5151 9.29048C37.9895 9.60298 37.5776 10.0256 37.2793 10.5582C36.981 11.0838 36.8283 11.6697 36.8212 12.3161V14.9901C36.8212 15.7997 36.9703 16.4993 37.2686 17.0888C37.574 17.6783 38.0037 18.1328 38.5577 18.4524C39.1117 18.772 39.7686 18.9318 40.5286 18.9318C41.0328 18.9318 41.4945 18.8608 41.9135 18.7188C42.3326 18.5767 42.6912 18.3636 42.9895 18.0795C43.2878 17.7955 43.5151 17.4474 43.6713 17.0355L47.8688 17.3125C47.6557 18.321 47.2189 19.2017 46.5584 19.9545C45.905 20.7003 45.0598 21.2827 44.0229 21.7017C42.9931 22.1136 41.8034 22.3196 40.454 22.3196ZM56.8198 22.3196C55.165 22.3196 53.7338 21.968 52.5265 21.2649C51.3262 20.5547 50.3993 19.5675 49.7459 18.3033C49.0925 17.032 48.7658 15.5582 48.7658 13.8821C48.7658 12.1918 49.0925 10.7145 49.7459 9.45028C50.3993 8.17898 51.3262 7.19176 52.5265 6.48864C53.7338 5.77841 55.165 5.4233 56.8198 5.4233C58.4746 5.4233 59.9022 5.77841 61.1025 6.48864C62.3098 7.19176 63.2402 8.17898 63.8936 9.45028C64.5471 10.7145 64.8738 12.1918 64.8738 13.8821C64.8738 15.5582 64.5471 17.032 63.8936 18.3033C63.2402 19.5675 62.3098 20.5547 61.1025 21.2649C59.9022 21.968 58.4746 22.3196 56.8198 22.3196ZM56.8411 18.804C57.5939 18.804 58.2225 18.5909 58.7267 18.1648C59.231 17.7315 59.611 17.142 59.8667 16.3963C60.1294 15.6506 60.2608 14.8018 60.2608 13.8501C60.2608 12.8984 60.1294 12.0497 59.8667 11.304C59.611 10.5582 59.231 9.96875 58.7267 9.53551C58.2225 9.10227 57.5939 8.88565 56.8411 8.88565C56.0811 8.88565 55.4419 9.10227 54.9235 9.53551C54.4121 9.96875 54.025 10.5582 53.7623 11.304C53.5066 12.0497 53.3787 12.8984 53.3787 13.8501C53.3787 14.8018 53.5066 15.6506 53.7623 16.3963C54.025 17.142 54.4121 17.7315 54.9235 18.1648C55.4419 18.5909 56.0811 18.804 56.8411 18.804ZM70.8631 12.5398V22H66.3248V5.63636H70.65V8.52344H70.8418C71.204 7.57173 71.8113 6.81889 72.6635 6.26491C73.5158 5.70384 74.5492 5.4233 75.7637 5.4233C76.9 5.4233 77.8908 5.67187 78.736 6.16903C79.5811 6.66619 80.2381 7.37642 80.7069 8.29972C81.1756 9.21591 81.41 10.3097 81.41 11.581V22H76.8716V12.3906C76.8787 11.3892 76.623 10.608 76.1046 10.0469C75.5861 9.47869 74.8723 9.1946 73.9632 9.1946C73.3525 9.1946 72.8127 9.32599 72.3439 9.58878C71.8823 9.85156 71.5201 10.2351 71.2573 10.7393C71.0016 11.2365 70.8702 11.8366 70.8631 12.5398ZM97.1019 10.3026L92.9471 10.5582C92.8761 10.2031 92.7234 9.88352 92.489 9.59943C92.2546 9.30824 91.9457 9.07741 91.5621 8.90696C91.1857 8.7294 90.7347 8.64062 90.2092 8.64062C89.506 8.64062 88.913 8.78977 88.43 9.08807C87.9471 9.37926 87.7056 9.76989 87.7056 10.2599C87.7056 10.6506 87.8619 10.9808 88.1744 11.2507C88.4869 11.5206 89.0231 11.7372 89.783 11.9006L92.7447 12.4972C94.3356 12.8239 95.5217 13.3494 96.3029 14.0739C97.0842 14.7983 97.4748 15.75 97.4748 16.929C97.4748 18.0014 97.1587 18.9425 96.5266 19.7521C95.9016 20.5618 95.0423 21.1939 93.9485 21.6484C92.8619 22.0959 91.6083 22.3196 90.1879 22.3196C88.0217 22.3196 86.2958 21.8686 85.0103 20.9666C83.7319 20.0575 82.9826 18.8217 82.7624 17.2592L87.2262 17.0249C87.3612 17.6854 87.6879 18.1896 88.2063 18.5376C88.7248 18.8786 89.3888 19.049 90.1985 19.049C90.994 19.049 91.6332 18.8963 92.1161 18.5909C92.6062 18.2784 92.8548 17.8771 92.8619 17.3871C92.8548 16.9751 92.6808 16.6378 92.3398 16.375C91.9989 16.1051 91.4734 15.8991 90.7631 15.7571L87.9293 15.1925C86.3313 14.8729 85.1417 14.3189 84.3604 13.5305C83.5863 12.7422 83.1992 11.7372 83.1992 10.5156C83.1992 9.46449 83.4833 8.55895 84.0515 7.79901C84.6268 7.03906 85.4329 6.45313 86.4698 6.04119C87.5138 5.62926 88.7354 5.4233 90.1346 5.4233C92.2013 5.4233 93.8278 5.86009 95.0138 6.73366C96.207 7.60724 96.9031 8.79687 97.1019 10.3026ZM109.326 15.0327V5.63636H113.865V22H109.507V19.0277H109.337C108.968 19.9865 108.353 20.7571 107.494 21.3395C106.642 21.9219 105.601 22.2131 104.372 22.2131C103.279 22.2131 102.316 21.9645 101.485 21.4673C100.654 20.9702 100.004 20.2635 99.5357 19.3473C99.074 18.4311 98.8397 17.3338 98.8326 16.0554V5.63636H103.371V15.2457C103.378 16.2116 103.637 16.9751 104.149 17.5362C104.66 18.0973 105.345 18.3778 106.205 18.3778C106.752 18.3778 107.263 18.2536 107.739 18.005C108.215 17.7493 108.598 17.3729 108.889 16.8757C109.188 16.3786 109.333 15.7642 109.326 15.0327ZM120.107 17.2912L120.118 11.8473H120.778L126.02 5.63636H131.229L124.187 13.8608H123.111L120.107 17.2912ZM115.995 22V0.181818H120.533V22H115.995ZM126.222 22L121.407 14.8729L124.432 11.6662L131.538 22H126.222Z" fill="black"/>
</svg>
